<svg xmlns="http://www.w3.org/2000/svg" viewBox="0 0 1600 1000" preserveAspectRatio="xMidYMax slice"><defs><linearGradient id="sky" x1="0" y1="0" x2="0" y2="1"><stop offset="0" stop-color="#a9c4e6"/><stop offset=".4" stop-color="#cddcef"/><stop offset=".58" stop-color="#eef2f6"/><stop offset=".64" stop-color="#f7f5ef"/></linearGradient><radialGradient id="glow"><stop offset="0" stop-color="#fff" stop-opacity=".9"/><stop offset=".3" stop-color="#cfe0ff" stop-opacity=".25"/><stop offset="1" stop-color="#cfe0ff" stop-opacity="0"/></radialGradient><radialGradient id="sun"><stop offset="0" stop-color="#ffffff"/><stop offset=".18" stop-color="#ffffff"/><stop offset=".22" stop-color="#e6eef8" stop-opacity=".7"/><stop offset="1" stop-color="#e6eef8" stop-opacity="0"/></radialGradient><linearGradient id="haze" x1="0" y1="0" x2="0" y2="1"><stop offset="0" stop-color="#f3f1ec" stop-opacity="0"/><stop offset="1" stop-color="#f3f1ec" stop-opacity=".7"/></linearGradient><linearGradient id="d0" x1="0" y1="0" x2="0" y2="1"><stop offset="0" stop-color="#efe9de"/><stop offset=".45" stop-color="#ddd5c6"/><stop offset="1" stop-color="#b9b3a8"/></linearGradient><linearGradient id="d1" x1="0" y1="0" x2="0" y2="1"><stop offset="0" stop-color="#e7e0d3"/><stop offset=".45" stop-color="#cfc6b6"/><stop offset="1" stop-color="#a8a196"/></linearGradient><linearGradient id="d2" x1="0" y1="0" x2="0" y2="1"><stop offset="0" stop-color="#ddd5c6"/><stop offset=".45" stop-color="#c0b6a5"/><stop offset="1" stop-color="#958e84"/></linearGradient></defs><rect width="1600" height="1000" fill="url(#sky)"/><circle cx="380" cy="470" r="230" fill="url(#sun)"/><rect y="430" width="1600" height="180" fill="url(#haze)"/><path d="M-50 624.0 Q-27.4 622.9 32.6 622.9 Q5.1 537.2 115.1 541.2 Q243.8 628.6 303.8 628.6 Q382.5 549.5 492.5 553.5 Q700.6 629.8 760.6 629.8 Q918.7 543.5 1028.7 547.5 Q1230.2 623.7 1290.2 623.7 Q1441.8 555.9 1551.8 559.9 Q1620 610.0 1650 624.0 L1650 1000 L-50 1000Z" fill="url(#d0)"/><path d="M-50 742.0 Q-79.9 738.0 -19.9 738.0 Q-99.8 658.0 10.2 662.0 Q185.2 746.0 245.2 746.0 Q370.2 631.0 480.2 635.0 Q672.9 749.5 732.9 749.5 Q875.6 636.8 985.6 640.8 Q1189.3 744.6 1249.3 744.6 Q1402.9 614.0 1512.9 618.0 Q1620 720.0 1650 742.0 L1650 1000 L-50 1000Z" fill="url(#d1)"/><path d="M-50 878.0 Q-181.0 874.3 -121.0 874.3 Q-302.1 753.3 -192.1 757.3 Q192.4 871.3 252.4 871.3 Q586.8 746.2 696.8 750.2 Q1051.9 885.3 1111.9 885.3 Q1417.0 715.9 1527.0 719.9 Q1620 850.0 1650 878.0 L1650 1000 L-50 1000Z" fill="url(#d2)"/></svg>
